<svg width="50" height="50" viewBox="0 0 50 50" fill="none" xmlns="http://www.w3.org/2000/svg">
<rect width="10" height="10" transform="matrix(-4.37114e-08 -1 -1 4.37114e-08 50 50)" fill="#620126"/>
<rect width="30" height="10" transform="matrix(-4.37114e-08 -1 -1 4.37114e-08 50 40)" fill="#FF6080"/>
<rect width="10" height="10" transform="matrix(-4.37114e-08 -1 -1 4.37114e-08 40 50)" fill="#620126"/>
<rect width="20" height="10" transform="matrix(-4.37114e-08 -1 -1 4.37114e-08 40 40)" fill="#FF6080"/>
<rect width="10" height="10" transform="matrix(-4.37114e-08 -1 -1 4.37114e-08 30 40)" fill="#620126"/>
<rect width="10" height="10" transform="matrix(-4.37114e-08 -1 -1 4.37114e-08 30 30)" fill="#FF6080"/>
<rect width="10" height="10" transform="matrix(-4.37114e-08 -1 -1 4.37114e-08 20 40)" fill="#620126"/>
<rect width="10" height="10" transform="matrix(-4.37114e-08 -1 -1 4.37114e-08 30 20)" fill="#620126"/>
<rect width="10" height="10" transform="matrix(-4.37114e-08 -1 -1 4.37114e-08 20 30)" fill="#620126"/>
<rect width="10" height="10" transform="matrix(-4.37114e-08 -1 -1 4.37114e-08 10 40)" fill="#620126"/>
<rect width="10" height="10" transform="matrix(-4.37114e-08 -1 -1 4.37114e-08 40 20)" fill="#620126"/>
<rect width="10" height="10" transform="matrix(-4.37114e-08 -1 -1 4.37114e-08 50 10)" fill="#620126"/>
</svg>
