<svg width="343" height="168" viewBox="0 0 343 168" fill="none" xmlns="http://www.w3.org/2000/svg">
<path d="M15.4999 15.6395V8H328.361V15.6395H336L336 147.5H328.361V155.139H15.5V147.5H7.86035L7.86044 15.6395H15.4999Z" fill="#FF6080"/>
<rect x="32" y="15" width="285" height="8" fill="#FF89A1"/>
<rect x="24.4463" y="22.9185" width="7.63948" height="7.63948" fill="#FF89A1"/>
<rect x="16.043" y="31.3219" width="7.63948" height="7.63948" fill="#FF89A1"/>
<rect x="317" y="23.6824" width="7.63948" height="7.63948" fill="#FF89A1"/>
<rect x="7.63965" y="145" width="23.6824" height="7.63948" fill="#F7345B"/>
<rect x="312" y="145" width="23.6824" height="7.63948" fill="#F7345B"/>
<rect x="15" y="152.918" width="313" height="7" fill="#F7345B"/>
<rect x="15" width="313" height="8" fill="#620126"/>
<rect y="15.279" width="7.63948" height="39.7253" fill="#620126"/>
<rect x="15" y="159.279" width="313" height="8" fill="#620126"/>
<rect x="7.63965" y="7.63953" width="7.63948" height="7.63948" fill="#620126"/>
<rect x="328" y="7.63953" width="7.63948" height="7.63948" fill="#620126"/>
<rect x="7.63965" y="152" width="7.63948" height="7.63948" fill="#620126"/>
<rect x="328" y="152" width="7.63948" height="7.63948" fill="#620126"/>
<rect y="15" width="8" height="145" fill="#620126"/>
<rect x="336" y="15" width="7" height="145" fill="#620126"/>
</svg>
