<svg width="253" height="356" viewBox="0 0 253 356" fill="none" xmlns="http://www.w3.org/2000/svg">
<path d="M15.279 15.2791V7.63965H237.206V15.2791H244.846V341.485H237.206V349.125H31.3219V341.485H7.6395V15.2791H15.279Z" fill="#FF6080"/>
<rect x="32.0858" y="15.2788" width="197.099" height="7.63948" fill="#FF89A1"/>
<rect x="24.4463" y="22.9182" width="7.63948" height="7.63948" fill="#FF89A1"/>
<rect x="16.0429" y="31.3218" width="7.63948" height="7.63948" fill="#FF89A1"/>
<rect x="229.184" y="23.6824" width="7.63948" height="7.63948" fill="#FF89A1"/>
<rect x="7.6395" y="333.082" width="23.6824" height="7.63948" fill="#F7345B"/>
<rect x="220.781" y="333.082" width="23.6824" height="7.63948" fill="#F7345B"/>
<rect x="15.2791" y="340.721" width="221.545" height="7.63948" fill="#F7345B"/>
<rect x="15.279" width="221.545" height="7.63948" fill="#620126"/>
<rect y="15.2788" width="7.63948" height="39.7253" fill="#620126"/>
<rect x="15.279" y="348.361" width="221.545" height="7.63948" fill="#620126"/>
<rect x="7.6395" y="7.63965" width="7.63948" height="7.63948" fill="#620126"/>
<rect x="236.824" y="7.63965" width="7.63948" height="7.63948" fill="#620126"/>
<rect x="7.6395" y="340.721" width="7.63948" height="7.63948" fill="#620126"/>
<rect x="236.824" y="340.721" width="7.63948" height="7.63948" fill="#620126"/>
<rect y="15.2788" width="7.63948" height="325.442" fill="#620126"/>
<rect x="244.464" y="15.2788" width="7.63948" height="325.442" fill="#620126"/>
</svg>
