<svg width="235" height="87" viewBox="0 0 235 87" fill="none" xmlns="http://www.w3.org/2000/svg">
<path d="M14.2425 14.2423V7.12109H221.114V14.2423H228.235V78.6893H221.114V85.8105H29.1971V78.6893H7.12134V14.2423H14.2425Z" fill="#FF6080"/>
<rect x="29.9091" y="14.2427" width="183.727" height="7.12121" fill="#FF89A1"/>
<rect x="22.7879" y="21.3638" width="7.12121" height="7.12121" fill="#FF89A1"/>
<rect x="14.9546" y="29.1972" width="7.12121" height="7.12121" fill="#FF89A1"/>
<rect x="213.636" y="22.0762" width="7.12121" height="7.12121" fill="#FF89A1"/>
<rect x="7.12134" y="64.8027" width="22.0758" height="7.12121" fill="#F7345B"/>
<rect x="205.803" y="64.8027" width="22.0758" height="7.12121" fill="#F7345B"/>
<rect x="14.2424" y="71.9238" width="206.515" height="7.12121" fill="#F7345B"/>
<rect x="14.2426" width="206.515" height="7.12121" fill="#620126"/>
<rect x="0.000244141" y="14.2422" width="7.12121" height="37.0303" fill="#620126"/>
<rect x="14.2426" y="79.0455" width="206.515" height="7.12121" fill="#620126"/>
<rect x="7.12134" y="7.12109" width="7.12121" height="7.12121" fill="#620126"/>
<rect x="220.758" y="7.12109" width="7.12121" height="7.12121" fill="#620126"/>
<rect x="7.12138" y="71.9243" width="7.12121" height="7.12121" fill="#620126"/>
<rect x="220.758" y="71.9243" width="7.12121" height="7.12121" fill="#620126"/>
<rect y="14.2422" width="7.12121" height="57.6818" fill="#620126"/>
<rect x="227.879" y="14.2422" width="7.12121" height="57.6818" fill="#620126"/>
</svg>
