<svg width="25" height="23" viewBox="0 0 25 23" fill="none" xmlns="http://www.w3.org/2000/svg">
<path d="M2.40659 9.43521L2.40659 14.0296L2.40659 15.7799L9.51701 15.7799L11.5954 20.8119L16.1899 20.8119L18.3777 18.6241L18.4871 17.0926L20.6749 14.9048L20.6749 9.43521L2.40659 9.43521Z" fill="#FF6080"/>
<rect x="11.5954" y="18.4052" width="2.18782" height="2.18782" transform="rotate(-90 11.5954 18.4052)" fill="#FF89A1"/>
<rect x="9.18881" y="16.2175" width="2.18782" height="2.18782" transform="rotate(-90 9.18881 16.2175)" fill="#FF89A1"/>
<rect x="7.00098" y="14.0298" width="2.18782" height="2.18782" transform="rotate(-90 7.00098 14.0298)" fill="#FF89A1"/>
<rect x="18.3777" y="16.4364" width="2.18782" height="2.18782" transform="rotate(-90 18.3777 16.4364)" fill="#F7345B"/>
<rect x="20.5655" y="14.2487" width="4.81321" height="2.18782" transform="rotate(-90 20.5655 14.2487)" fill="#F7345B"/>
<rect x="9.18884" y="9.43555" width="2.18782" height="2.4066" transform="rotate(-90 9.18884 9.43555)" fill="#F7345B"/>
<rect x="16.1898" y="9.43555" width="2.18782" height="4.37565" transform="rotate(-90 16.1898 9.43555)" fill="#F7345B"/>
<rect x="11.5954" y="9.43555" width="6.56347" height="4.59443" transform="rotate(-90 11.5954 9.43555)" fill="#F7345B"/>
<rect y="14.0299" width="4.59443" height="2.4066" transform="rotate(-90 0 14.0299)" fill="#620126"/>
<rect x="2.40659" y="16.2177" width="2.18782" height="6.78225" transform="rotate(-90 2.40659 16.2177)" fill="#620126"/>
<rect x="11.5954" y="22.9998" width="2.18782" height="4.59443" transform="rotate(-90 11.5954 22.9998)" fill="#620126"/>
<rect width="2.18782" height="4.59443" transform="matrix(4.37114e-08 1 1 -4.37114e-08 11.5954 0.684082)" fill="#620126"/>
<rect x="16.1898" y="20.8119" width="2.18782" height="2.18782" transform="rotate(-90 16.1898 20.8119)" fill="#620126"/>
<rect x="16.1898" y="7.24744" width="2.18782" height="2.4066" transform="rotate(-90 16.1898 7.24744)" fill="#620126"/>
<rect width="2.18782" height="2.18782" transform="matrix(4.37114e-08 1 1 -4.37114e-08 16.1898 2.87195)" fill="#620126"/>
<rect x="18.3777" y="18.624" width="2.18782" height="2.18782" transform="rotate(-90 18.3777 18.624)" fill="#620126"/>
<rect width="2.18782" height="2.18782" transform="matrix(4.37114e-08 1 1 -4.37114e-08 18.3777 5.05945)" fill="#620126"/>
<rect x="20.5655" y="16.4364" width="2.18782" height="2.18782" transform="rotate(-90 20.5655 16.4364)" fill="#620126"/>
<rect width="2.18782" height="2.18782" transform="matrix(4.37114e-08 1 1 -4.37114e-08 20.5655 7.24744)" fill="#620126"/>
<rect x="22.7533" y="14.2487" width="4.81321" height="2.18782" transform="rotate(-90 22.7533 14.2487)" fill="#620126"/>
<rect x="9.18884" y="20.8119" width="4.59443" height="2.4066" transform="rotate(-90 9.18884 20.8119)" fill="#620126"/>
<rect x="9.18884" y="7.24744" width="4.59443" height="2.4066" transform="rotate(-90 9.18884 7.24744)" fill="#620126"/>
<rect x="2.40659" y="9.43518" width="2.18782" height="6.78225" transform="rotate(-90 2.40659 9.43518)" fill="#620126"/>
</svg>
