<svg width="25" height="23" viewBox="0 0 25 23" fill="none" xmlns="http://www.w3.org/2000/svg">
<path d="M22.5934 9.43521L22.5934 14.0296L22.5934 15.7799L15.483 15.7799L13.4046 20.8119L8.81013 20.8119L6.62231 18.6241L6.51292 17.0926L4.3251 14.9048L4.3251 9.43521L22.5934 9.43521Z" fill="#FF6080"/>
<rect width="2.18782" height="2.18782" transform="matrix(4.37114e-08 -1 -1 -4.37114e-08 13.4046 18.405)" fill="#FF89A1"/>
<rect width="2.18782" height="2.18782" transform="matrix(4.37114e-08 -1 -1 -4.37114e-08 15.8113 16.2177)" fill="#FF89A1"/>
<rect width="2.18782" height="2.18782" transform="matrix(4.37114e-08 -1 -1 -4.37114e-08 17.9991 14.0297)" fill="#FF89A1"/>
<rect width="2.18782" height="2.18782" transform="matrix(4.37114e-08 -1 -1 -4.37114e-08 6.62231 16.4364)" fill="#F7345B"/>
<rect width="4.81321" height="2.18782" transform="matrix(4.37114e-08 -1 -1 -4.37114e-08 4.43457 14.2484)" fill="#F7345B"/>
<rect width="2.18782" height="2.4066" transform="matrix(4.37114e-08 -1 -1 -4.37114e-08 15.8113 9.43555)" fill="#F7345B"/>
<rect width="2.18782" height="4.37565" transform="matrix(4.37114e-08 -1 -1 -4.37114e-08 8.81027 9.43555)" fill="#F7345B"/>
<rect width="6.56347" height="4.59443" transform="matrix(4.37114e-08 -1 -1 -4.37114e-08 13.4048 9.43542)" fill="#F7345B"/>
<rect width="4.59443" height="2.4066" transform="matrix(4.37114e-08 -1 -1 -4.37114e-08 25 14.0302)" fill="#620126"/>
<rect width="2.18782" height="6.78225" transform="matrix(4.37114e-08 -1 -1 -4.37114e-08 22.5934 16.2177)" fill="#620126"/>
<rect width="2.18782" height="4.59443" transform="matrix(4.37114e-08 -1 -1 -4.37114e-08 13.4046 22.9998)" fill="#620126"/>
<rect x="13.4046" y="0.684082" width="2.18782" height="4.59443" transform="rotate(90 13.4046 0.684082)" fill="#620126"/>
<rect width="2.18782" height="2.18782" transform="matrix(4.37114e-08 -1 -1 -4.37114e-08 8.81015 20.8119)" fill="#620126"/>
<rect width="2.18782" height="2.4066" transform="matrix(4.37114e-08 -1 -1 -4.37114e-08 8.81015 7.24744)" fill="#620126"/>
<rect x="8.81015" y="2.87195" width="2.18782" height="2.18782" transform="rotate(90 8.81015 2.87195)" fill="#620126"/>
<rect width="2.18782" height="2.18782" transform="matrix(4.37114e-08 -1 -1 -4.37114e-08 6.62231 18.6239)" fill="#620126"/>
<rect x="6.62231" y="5.05945" width="2.18782" height="2.18782" transform="rotate(90 6.62231 5.05945)" fill="#620126"/>
<rect width="2.18782" height="2.18782" transform="matrix(4.37114e-08 -1 -1 -4.37114e-08 4.43448 16.4364)" fill="#620126"/>
<rect x="4.43448" y="7.24744" width="2.18782" height="2.18782" transform="rotate(90 4.43448 7.24744)" fill="#620126"/>
<rect width="4.81321" height="2.18782" transform="matrix(4.37114e-08 -1 -1 -4.37114e-08 2.24658 14.2484)" fill="#620126"/>
<rect width="4.59443" height="2.4066" transform="matrix(4.37114e-08 -1 -1 -4.37114e-08 15.8113 20.8119)" fill="#620126"/>
<rect width="4.59443" height="2.4066" transform="matrix(4.37114e-08 -1 -1 -4.37114e-08 15.8113 7.24744)" fill="#620126"/>
<rect width="2.18782" height="6.78225" transform="matrix(4.37114e-08 -1 -1 -4.37114e-08 22.5935 9.43494)" fill="#620126"/>
</svg>
