<svg width="23" height="35" viewBox="0 0 23 35" fill="none" xmlns="http://www.w3.org/2000/svg">
<path d="M13.5647 2.40674H8.97025H7.21999V9.51716L2.188 11.5956V16.19L4.37582 18.3778L5.9073 18.4872L8.09512 20.6751H13.5647V2.40674Z" fill="#FF6080"/>
<rect x="4.59472" y="11.5952" width="2.18782" height="2.18782" fill="#FF89A1"/>
<rect x="6.78237" y="9.18896" width="2.18782" height="2.18782" fill="#FF89A1"/>
<rect x="8.97012" y="7.00098" width="2.18782" height="2.18782" fill="#FF89A1"/>
<rect x="6.5635" y="18.3779" width="2.18782" height="2.18782" fill="#F7345B"/>
<rect x="8.75127" y="20.5654" width="4.81321" height="2.18782" fill="#F7345B"/>
<rect x="13.5644" y="9.18896" width="2.18782" height="2.4066" fill="#F7345B"/>
<rect x="13.5644" y="16.1899" width="2.18782" height="4.37565" fill="#F7345B"/>
<rect x="13.5644" y="11.5957" width="6.56347" height="4.59443" fill="#F7345B"/>
<rect x="8.97004" width="4.59443" height="2.4066" fill="#620126"/>
<rect x="6.78229" y="2.40674" width="2.18782" height="6.78225" fill="#620126"/>
<rect x="0.0001297" y="11.5952" width="2.18782" height="4.59443" fill="#620126"/>
<rect width="2.18782" height="4.59443" transform="matrix(-1 0 0 1 22.3159 11.5952)" fill="#620126"/>
<rect x="2.188" y="16.1899" width="2.18782" height="2.18782" fill="#620126"/>
<rect x="15.7525" y="16.1899" width="2.18782" height="2.4066" fill="#620126"/>
<rect width="2.18782" height="2.18782" transform="matrix(-1 0 0 1 20.128 16.1899)" fill="#620126"/>
<rect x="4.37587" y="18.3774" width="2.18782" height="2.18782" fill="#620126"/>
<rect width="2.18782" height="2.18782" transform="matrix(-1 0 0 1 17.9405 18.3779)" fill="#620126"/>
<rect x="6.56352" y="20.5654" width="2.18782" height="2.18782" fill="#620126"/>
<rect width="2.18782" height="2.18782" transform="matrix(-1 0 0 1 15.7525 20.5654)" fill="#620126"/>
<rect x="8.75129" y="22.7534" width="4.81321" height="2.18782" fill="#620126"/>
<rect x="2.188" y="9.18896" width="4.59443" height="2.4066" fill="#620126"/>
<rect x="15.7525" y="9.18896" width="4.59443" height="2.4066" fill="#620126"/>
<rect x="13.5648" y="2.40674" width="2.18782" height="6.78225" fill="#620126"/>
</svg>
