<svg width="22" height="25" viewBox="0 0 22 25" fill="none" xmlns="http://www.w3.org/2000/svg">
<path d="M13.3726 2.37256H8.8432H7.11771V9.38236L2.15692 11.4314V15.9608L4.31378 18.1177L5.82359 18.2255L7.98045 20.3824H13.3726V2.37256Z" fill="#FF6080"/>
<path d="M4.52966 11.4316H6.68653V13.5885H4.52966V11.4316Z" fill="#FF89A1"/>
<path d="M6.68652 9.05908H8.84339V11.2159H6.68652V9.05908Z" fill="#FF89A1"/>
<path d="M8.84332 6.9021H11.0002V9.05896H8.84332V6.9021Z" fill="#FF89A1"/>
<path d="M6.47095 18.1177H8.62781V20.2745H6.47095V18.1177Z" fill="#F7345B"/>
<path d="M8.62787 20.2747H13.373V22.4315H8.62787V20.2747Z" fill="#F7345B"/>
<path d="M13.3726 9.05859H15.5294V11.4311H13.3726V9.05859Z" fill="#F7345B"/>
<path d="M13.3726 15.9609H15.5294V20.2747H13.3726V15.9609Z" fill="#F7345B"/>
<path d="M13.3726 11.4314H19.8431V15.9608H13.3726V11.4314Z" fill="#F7345B"/>
<path d="M8.84326 0H13.3727V2.37255H8.84326V0Z" fill="#F7345B"/>
<path d="M6.68646 2.37256H8.84333V9.05883H6.68646V2.37256Z" fill="#F7345B"/>
<path d="M0 11.4314H2.15686V15.9608H0V11.4314Z" fill="#F7345B"/>
<path d="M22.0004 11.4314H19.8436V15.9608H22.0004V11.4314Z" fill="#F7345B"/>
<path d="M2.15692 15.9609H4.31378V18.1178H2.15692V15.9609Z" fill="#F7345B"/>
<path d="M15.5294 15.9609H17.6863V18.3335H15.5294V15.9609Z" fill="#F7345B"/>
<path d="M19.8433 15.9609H17.6864V18.1178H19.8433V15.9609Z" fill="#F7345B"/>
<path d="M4.31409 18.1177H6.47095V20.2745H4.31409V18.1177Z" fill="#F7345B"/>
<path d="M17.6863 18.1177H15.5295V20.2745H17.6863V18.1177Z" fill="#F7345B"/>
<path d="M6.47058 20.2747H8.62744V22.4315H6.47058V20.2747Z" fill="#F7345B"/>
<path d="M15.5294 20.2747H13.3726V22.4315H15.5294V20.2747Z" fill="#F7345B"/>
<path d="M8.62744 22.4314H13.3725V24.5883H8.62744V22.4314Z" fill="#F7345B"/>
<path d="M2.15692 9.05884H6.68633V11.4314H2.15692V9.05884Z" fill="#F7345B"/>
<path d="M15.5294 9.05884H20.0588V11.4314H15.5294V9.05884Z" fill="#F7345B"/>
<path d="M13.3726 2.37256H15.5294V9.05883H13.3726V2.37256Z" fill="#F7345B"/>
</svg>
