<svg width="356" height="80" viewBox="0 0 356 80" fill="none" xmlns="http://www.w3.org/2000/svg">
<g filter="url(#filter0_d_22_862)">
<path d="M22.6497 64.64C19.343 64.64 16.6497 64.24 14.5697 63.44C12.4897 62.5867 10.9697 61.4133 10.0097 59.92C9.04968 58.4267 8.56968 56.6933 8.56968 54.72V24.72C8.56968 20.72 9.66302 17.92 11.8497 16.32C14.0364 14.72 17.5564 13.92 22.4097 13.92C26.943 13.92 30.4097 14.72 32.8097 16.32C35.263 17.92 36.4897 20.7467 36.4897 24.8V31.2L24.1697 31.6V27.28C24.1697 25.8933 24.0897 24.9867 23.9297 24.56C23.823 24.08 23.3697 23.84 22.5697 23.84C21.663 23.84 21.1564 24.1333 21.0497 24.72C20.943 25.2533 20.8897 26.08 20.8897 27.2V52.72C20.8897 53.0933 20.9164 53.4133 20.9697 53.68C21.0764 53.9467 21.263 54.16 21.5297 54.32C21.7964 54.48 22.1964 54.56 22.7297 54.56C23.263 54.56 23.663 54.48 23.9297 54.32C24.1964 54.16 24.3564 53.9467 24.4097 53.68C24.5164 53.4133 24.5697 53.0933 24.5697 52.72V47.68H22.4097L23.0497 37.36H36.4897V54.72C36.4897 56.6933 35.9297 58.4267 34.8097 59.92C33.743 61.4133 32.1697 62.5867 30.0897 63.44C28.063 64.24 25.583 64.64 22.6497 64.64ZM43.3141 64L53.5541 14.4H65.7941L75.9541 64H63.1541L61.3941 54.4L63.3141 56.16H55.5541L57.1541 54.4L55.7141 64H43.3141ZM57.6341 47.68L56.5941 46.4H62.6741L61.1541 47.68L59.6341 31.12L59.5541 28.88H59.4741L59.3941 31.12L57.6341 47.68ZM84.7703 64V14.4H100.29L105.97 39.28V39.84H106.13V39.28L111.81 14.4H127.33V64H115.01V40.72H114.85V42.88L111.01 56.24H101.09L97.2503 42.88V40.72H97.0903V64H84.7703ZM137.752 14.4H164.072V24H150.072V32.56H162.152L160.712 42.16H150.072V54.4H164.072V64H137.752V14.4ZM173.936 14.4H194.816C197.109 14.4 198.789 14.6933 199.856 15.28C200.976 15.8133 201.696 16.6667 202.016 17.84C202.389 18.96 202.576 20.3733 202.576 22.08V34.56C202.576 36.48 202.416 38.2933 202.096 40C201.776 41.6533 200.949 43.0133 199.616 44.08C198.283 45.0933 196.096 45.6 193.056 45.6H186.256V64H173.936V14.4ZM188.576 36C189.323 36 189.776 35.7867 189.936 35.36C190.149 34.88 190.256 34.08 190.256 32.96V28.08C190.256 26.1067 190.149 24.9333 189.936 24.56C189.776 24.1867 189.323 24 188.576 24H186.256V36H188.576ZM212.308 14.4H224.628V54.4H237.828V64H212.308V14.4ZM245.798 64L256.038 14.4H268.278L278.438 64H265.638L263.878 54.4L265.798 56.16H258.038L259.638 54.4L258.198 64H245.798ZM260.118 47.68L259.078 46.4H265.158L263.638 47.68L262.118 31.12L262.038 28.88H261.958L261.878 31.12L260.118 47.68ZM289.408 64V49.28L278.848 14.4H290.128L295.648 35.04V37.04H295.808V35.04L300.768 14.4H311.968L301.408 49.2V64H289.408ZM334.472 64.8C332.019 64.8 329.672 64.64 327.432 64.32C325.192 64 323.379 63.3867 321.992 62.48C320.606 61.52 319.912 60.16 319.912 58.4V46.48L332.232 45.28V53.12C332.232 53.6533 332.312 54.1067 332.472 54.48C332.632 54.8533 333.059 55.04 333.752 55.04C334.179 55.04 334.499 54.96 334.712 54.8C334.979 54.5867 335.166 54.3467 335.272 54.08C335.379 53.76 335.432 53.44 335.432 53.12V49.28C335.432 48.2133 335.192 47.1467 334.712 46.08C334.286 45.0133 333.246 44.2133 331.592 43.68L326.552 42C324.259 41.2533 322.579 40.2933 321.512 39.12C320.446 37.8933 319.912 35.9467 319.912 33.28V21.68C319.912 19.3333 320.579 17.6 321.912 16.48C323.299 15.36 325.086 14.64 327.272 14.32C329.512 13.9467 331.859 13.76 334.312 13.76C336.606 13.76 338.766 13.9467 340.792 14.32C342.819 14.6933 344.472 15.36 345.752 16.32C347.086 17.2267 347.752 18.5067 347.752 20.16V32.08L335.432 33.68V26.48C335.432 24.9333 335.272 24.0267 334.952 23.76C334.686 23.44 334.312 23.28 333.832 23.28C333.352 23.28 332.952 23.4667 332.632 23.84C332.366 24.2133 332.232 25.1467 332.232 26.64V29.6C332.232 30.4533 332.339 31.4133 332.552 32.48C332.766 33.5467 333.459 34.2933 334.632 34.72L340.552 36.8C343.059 37.6533 344.872 38.6667 345.992 39.84C347.166 40.96 347.752 42.7733 347.752 45.28V56.64C347.752 58.88 347.112 60.5867 345.832 61.76C344.552 62.9333 342.899 63.7333 340.872 64.16C338.899 64.5867 336.766 64.8 334.472 64.8Z" fill="white"/>
<path d="M14.5697 63.44L12.6719 68.0658L12.7231 68.0869L12.7748 68.1067L14.5697 63.44ZM10.0097 59.92L14.2156 57.2162L14.2156 57.2162L10.0097 59.92ZM11.8497 16.32L14.8022 20.3552L14.8022 20.3551L11.8497 16.32ZM32.8097 16.32L30.0362 20.4802L30.0572 20.4943L30.0783 20.5081L32.8097 16.32ZM36.4897 31.2L36.6519 36.1974L41.4897 36.0403V31.2H36.4897ZM24.1697 31.6H19.1697V36.765L24.3319 36.5974L24.1697 31.6ZM23.9297 24.56L19.0488 25.6447L19.1249 25.9871L19.248 26.3156L23.9297 24.56ZM21.0497 24.72L25.9526 25.7006L25.9612 25.6576L25.969 25.6144L21.0497 24.72ZM20.9697 53.68L16.0668 54.6606L16.1568 55.1107L16.3273 55.537L20.9697 53.68ZM24.4097 53.68L19.7673 51.823L19.5968 52.2493L19.5068 52.6994L24.4097 53.68ZM24.5697 47.68H29.5697V42.68H24.5697V47.68ZM22.4097 47.68L17.4193 47.3705L17.09 52.68H22.4097V47.68ZM23.0497 37.36V32.36H18.3502L18.0593 37.0505L23.0497 37.36ZM36.4897 37.36H41.4897V32.36H36.4897V37.36ZM34.8097 59.92L30.8097 56.92L30.7748 56.9665L30.741 57.0138L34.8097 59.92ZM30.0897 63.44L31.9255 68.0908L31.9566 68.0785L31.9875 68.0658L30.0897 63.44ZM22.6497 59.64C19.6878 59.64 17.6653 59.2736 16.3646 58.7733L12.7748 68.1067C15.634 69.2064 18.9983 69.64 22.6497 69.64V59.64ZM16.4675 58.8142C15.0824 58.2459 14.4898 57.6428 14.2156 57.2162L5.80379 62.6238C7.44959 65.1839 9.89698 66.9274 12.6719 68.0658L16.4675 58.8142ZM14.2156 57.2162C13.8308 56.6177 13.5697 55.8452 13.5697 54.72H3.56968C3.56968 57.5414 4.26858 60.2357 5.80379 62.6238L14.2156 57.2162ZM13.5697 54.72V24.72H3.56968V54.72H13.5697ZM13.5697 24.72C13.5697 21.5188 14.4322 20.6259 14.8022 20.3552L8.89714 12.2848C4.89381 15.2141 3.56968 19.9212 3.56968 24.72H13.5697ZM14.8022 20.3551C15.6839 19.7101 17.8796 18.92 22.4097 18.92V8.92C17.2331 8.92 12.3888 9.72994 8.89713 12.2848L14.8022 20.3551ZM22.4097 18.92C26.4756 18.92 28.8035 19.6585 30.0362 20.4802L35.5832 12.1597C32.0159 9.78153 27.4105 8.92 22.4097 8.92V18.92ZM30.0783 20.5081C30.6089 20.854 31.4897 21.7245 31.4897 24.8H41.4897C41.4897 19.7688 39.9172 14.986 35.541 12.1319L30.0783 20.5081ZM31.4897 24.8V31.2H41.4897V24.8H31.4897ZM36.3274 26.2026L24.0074 26.6026L24.3319 36.5974L36.6519 36.1974L36.3274 26.2026ZM29.1697 31.6V27.28H19.1697V31.6H29.1697ZM29.1697 27.28C29.1697 26.5072 29.148 25.7744 29.0903 25.1205C29.0418 24.5709 28.9392 23.6787 28.6113 22.8044L19.248 26.3156C19.1447 26.0399 19.1141 25.8575 19.1138 25.8558C19.1099 25.8344 19.1181 25.8752 19.129 25.9995C19.1513 26.2522 19.1697 26.6661 19.1697 27.28H29.1697ZM28.8106 23.4753C28.4241 21.736 27.3065 20.3726 25.8491 19.6011C24.6085 18.9442 23.3721 18.84 22.5697 18.84V28.84C22.5673 28.84 21.9576 28.8558 21.1702 28.4389C20.7365 28.2093 20.2534 27.8489 19.8379 27.3147C19.4186 26.7756 19.1699 26.1899 19.0488 25.6447L28.8106 23.4753ZM22.5697 18.84C21.678 18.84 20.3269 18.9673 19.0045 19.7329C17.4551 20.6299 16.4404 22.1201 16.1303 23.8256L25.969 25.6144C25.8818 26.0942 25.684 26.6525 25.3067 27.194C24.9278 27.7376 24.4627 28.1278 24.0149 28.3871C23.5855 28.6357 23.2106 28.743 22.9808 28.7907C22.751 28.8384 22.6018 28.84 22.5697 28.84V18.84ZM16.1468 23.7394C15.9383 24.7817 15.8897 26.02 15.8897 27.2H25.8897C25.8897 26.7128 25.9015 26.3384 25.9193 26.0619C25.9383 25.7682 25.9589 25.6688 25.9526 25.7006L16.1468 23.7394ZM15.8897 27.2V52.72H25.8897V27.2H15.8897ZM15.8897 52.72C15.8897 53.3102 15.93 53.9769 16.0668 54.6606L25.8726 52.6994C25.8812 52.7423 25.8861 52.7745 25.8888 52.7944C25.8902 52.8046 25.8911 52.8122 25.8917 52.8172C25.8922 52.8222 25.8924 52.8247 25.8924 52.8248C25.8924 52.8248 25.8922 52.8226 25.892 52.818C25.8917 52.8135 25.8913 52.8068 25.891 52.7978C25.8903 52.7798 25.8897 52.754 25.8897 52.72H15.8897ZM16.3273 55.537C16.8741 56.9039 17.8359 57.9347 18.9572 58.6075L24.1022 50.0325C24.6902 50.3853 25.2786 50.9894 25.6121 51.823L16.3273 55.537ZM18.9572 58.6075C20.3757 59.4586 21.8596 59.56 22.7297 59.56V49.56C22.698 49.56 22.8065 49.5563 23.0103 49.5971C23.2069 49.6364 23.6177 49.7419 24.1022 50.0325L18.9572 58.6075ZM22.7297 59.56C23.5998 59.56 25.0836 59.4586 26.5022 58.6075L21.3572 50.0325C21.8417 49.7419 22.2525 49.6364 22.4491 49.5971C22.6529 49.5563 22.7614 49.56 22.7297 49.56V59.56ZM26.5022 58.6075C27.7855 57.8375 28.9421 56.5132 29.3126 54.6606L19.5068 52.6994C19.6235 52.1156 19.8726 51.5427 20.2497 51.04C20.6167 50.5507 21.0268 50.2308 21.3572 50.0325L26.5022 58.6075ZM29.0521 55.537C29.4541 54.5318 29.5697 53.5479 29.5697 52.72H19.5697C19.5697 52.6388 19.5786 52.2949 19.7673 51.823L29.0521 55.537ZM29.5697 52.72V47.68H19.5697V52.72H29.5697ZM24.5697 42.68H22.4097V52.68H24.5697V42.68ZM27.4001 47.9895L28.0401 37.6695L18.0593 37.0505L17.4193 47.3705L27.4001 47.9895ZM23.0497 42.36H36.4897V32.36H23.0497V42.36ZM31.4897 37.36V54.72H41.4897V37.36H31.4897ZM31.4897 54.72C31.4897 55.6775 31.2421 56.3435 30.8097 56.92L38.8097 62.92C40.6173 60.5099 41.4897 57.7092 41.4897 54.72H31.4897ZM30.741 57.0138C30.3332 57.5847 29.5973 58.2376 28.1919 58.8142L31.9875 68.0658C34.742 66.9358 37.1528 65.2419 38.8784 62.8262L30.741 57.0138ZM28.2539 58.7892C26.9758 59.2937 25.1591 59.64 22.6497 59.64V69.64C26.007 69.64 29.1502 69.1863 31.9255 68.0908L28.2539 58.7892ZM43.3141 64L38.4173 62.9891L37.1764 69H43.3141V64ZM53.5541 14.4V9.4H49.4809L48.6573 13.3891L53.5541 14.4ZM65.7941 14.4L70.6924 13.3966L69.8737 9.4H65.7941V14.4ZM75.9541 64V69H82.0821L80.8524 62.9966L75.9541 64ZM63.1541 64L58.236 64.9016L58.9874 69H63.1541V64ZM61.3941 54.4L64.7727 50.7142L53.7892 40.646L56.476 55.3016L61.3941 54.4ZM63.3141 56.16V61.16H76.1681L66.6927 52.4742L63.3141 56.16ZM55.5541 56.16L51.8544 52.7966L44.2513 61.16H55.5541V56.16ZM57.1541 54.4L62.0987 55.1417L64.5444 38.8376L53.4544 51.0366L57.1541 54.4ZM55.7141 64V69H60.02L60.6587 64.7417L55.7141 64ZM57.6341 47.68L53.7535 50.833L61.3354 60.1645L62.6061 48.2084L57.6341 47.68ZM56.5941 46.4V41.4H46.0892L52.7135 49.553L56.5941 46.4ZM62.6741 46.4L65.8947 50.2246L76.3739 41.4H62.6741V46.4ZM61.1541 47.68L56.175 48.137L57.0502 57.6726L64.3747 51.5046L61.1541 47.68ZM59.6341 31.12L54.6372 31.2985L54.6422 31.438L54.655 31.577L59.6341 31.12ZM59.5541 28.88L64.5509 28.7015L64.3787 23.88H59.5541V28.88ZM59.4741 28.88V23.88H54.6494L54.4772 28.7015L59.4741 28.88ZM59.3941 31.12L64.3661 31.6484L64.3846 31.4739L64.3909 31.2985L59.3941 31.12ZM48.2108 65.0109L58.4508 15.4109L48.6573 13.3891L38.4173 62.9891L48.2108 65.0109ZM53.5541 19.4H65.7941V9.4H53.5541V19.4ZM60.8958 15.4034L71.0558 65.0034L80.8524 62.9966L70.6924 13.3966L60.8958 15.4034ZM75.9541 59H63.1541V69H75.9541V59ZM68.0721 63.0984L66.3121 53.4984L56.476 55.3016L58.236 64.9016L68.0721 63.0984ZM58.0154 58.0858L59.9354 59.8458L66.6927 52.4742L64.7727 50.7142L58.0154 58.0858ZM63.3141 51.16H55.5541V61.16H63.3141V51.16ZM59.2538 59.5234L60.8538 57.7634L53.4544 51.0366L51.8544 52.7966L59.2538 59.5234ZM52.2094 53.6583L50.7694 63.2583L60.6587 64.7417L62.0987 55.1417L52.2094 53.6583ZM55.7141 59H43.3141V69H55.7141V59ZM61.5146 44.527L60.4746 43.247L52.7135 49.553L53.7535 50.833L61.5146 44.527ZM56.5941 51.4H62.6741V41.4H56.5941V51.4ZM59.4534 42.5754L57.9334 43.8554L64.3747 51.5046L65.8947 50.2246L59.4534 42.5754ZM66.1331 47.223L64.6131 30.663L54.655 31.577L56.175 48.137L66.1331 47.223ZM64.6309 30.9415L64.5509 28.7015L54.5572 29.0585L54.6372 31.2985L64.6309 30.9415ZM59.5541 23.88H59.4741V33.88H59.5541V23.88ZM54.4772 28.7015L54.3972 30.9415L64.3909 31.2985L64.4709 29.0585L54.4772 28.7015ZM54.4221 30.5916L52.6621 47.1516L62.6061 48.2084L64.3661 31.6484L54.4221 30.5916ZM84.7703 64H79.7703V69H84.7703V64ZM84.7703 14.4V9.4H79.7703V14.4H84.7703ZM100.29 14.4L105.165 13.2872L104.277 9.4H100.29V14.4ZM105.97 39.28H110.97V38.7165L110.845 38.1672L105.97 39.28ZM105.97 39.84H100.97V44.84H105.97V39.84ZM106.13 39.84V44.84H111.13V39.84H106.13ZM106.13 39.28L101.256 38.1672L101.13 38.7165V39.28H106.13ZM111.81 14.4V9.4H107.823L106.936 13.2872L111.81 14.4ZM127.33 14.4H132.33V9.4H127.33V14.4ZM127.33 64V69H132.33V64H127.33ZM115.01 64H110.01V69H115.01V64ZM115.01 40.72H120.01V35.72H115.01V40.72ZM114.85 40.72V35.72H109.85V40.72H114.85ZM114.85 42.88L119.656 44.2612L119.85 43.5843V42.88H114.85ZM111.01 56.24V61.24H114.776L115.816 57.6212L111.01 56.24ZM101.09 56.24L96.2849 57.6212L97.325 61.24H101.09V56.24ZM97.2503 42.88H92.2503V43.5843L92.4449 44.2612L97.2503 42.88ZM97.2503 40.72H102.25V35.72H97.2503V40.72ZM97.0903 40.72V35.72H92.0903V40.72H97.0903ZM97.0903 64V69H102.09V64H97.0903ZM89.7703 64V14.4H79.7703V64H89.7703ZM84.7703 19.4H100.29V9.4H84.7703V19.4ZM95.4157 15.5128L101.096 40.3928L110.845 38.1672L105.165 13.2872L95.4157 15.5128ZM100.97 39.28V39.84H110.97V39.28H100.97ZM105.97 44.84H106.13V34.84H105.97V44.84ZM111.13 39.84V39.28H101.13V39.84H111.13ZM111.005 40.3928L116.685 15.5128L106.936 13.2872L101.256 38.1672L111.005 40.3928ZM111.81 19.4H127.33V9.4H111.81V19.4ZM122.33 14.4V64H132.33V14.4H122.33ZM127.33 59H115.01V69H127.33V59ZM120.01 64V40.72H110.01V64H120.01ZM115.01 35.72H114.85V45.72H115.01V35.72ZM109.85 40.72V42.88H119.85V40.72H109.85ZM110.045 41.4988L106.205 54.8588L115.816 57.6212L119.656 44.2612L110.045 41.4988ZM111.01 51.24H101.09V61.24H111.01V51.24ZM105.896 54.8588L102.056 41.4988L92.4449 44.2612L96.2849 57.6212L105.896 54.8588ZM102.25 42.88V40.72H92.2503V42.88H102.25ZM97.2503 35.72H97.0903V45.72H97.2503V35.72ZM92.0903 40.72V64H102.09V40.72H92.0903ZM97.0903 59H84.7703V69H97.0903V59ZM137.752 14.4V9.4H132.752V14.4H137.752ZM164.072 14.4H169.072V9.4H164.072V14.4ZM164.072 24V29H169.072V24H164.072ZM150.072 24V19H145.072V24H150.072ZM150.072 32.56H145.072V37.56H150.072V32.56ZM162.152 32.56L167.096 33.3017L167.958 27.56H162.152V32.56ZM160.712 42.16V47.16H165.018L165.656 42.9017L160.712 42.16ZM150.072 42.16V37.16H145.072V42.16H150.072ZM150.072 54.4H145.072V59.4H150.072V54.4ZM164.072 54.4H169.072V49.4H164.072V54.4ZM164.072 64V69H169.072V64H164.072ZM137.752 64H132.752V69H137.752V64ZM137.752 19.4H164.072V9.4H137.752V19.4ZM159.072 14.4V24H169.072V14.4H159.072ZM164.072 19H150.072V29H164.072V19ZM145.072 24V32.56H155.072V24H145.072ZM150.072 37.56H162.152V27.56H150.072V37.56ZM157.207 31.8183L155.767 41.4183L165.656 42.9017L167.096 33.3017L157.207 31.8183ZM160.712 37.16H150.072V47.16H160.712V37.16ZM145.072 42.16V54.4H155.072V42.16H145.072ZM150.072 59.4H164.072V49.4H150.072V59.4ZM159.072 54.4V64H169.072V54.4H159.072ZM164.072 59H137.752V69H164.072V59ZM142.752 64V14.4H132.752V64H142.752ZM173.936 14.4V9.4H168.936V14.4H173.936ZM199.856 15.28L197.446 19.6611L197.574 19.7315L197.706 19.7943L199.856 15.28ZM202.016 17.84L197.192 19.1556L197.229 19.2895L197.273 19.4211L202.016 17.84ZM202.096 40L207.005 40.9501L207.008 40.9358L207.01 40.9214L202.096 40ZM199.616 44.08L202.641 48.0608L202.691 48.0232L202.739 47.9843L199.616 44.08ZM186.256 45.6V40.6H181.256V45.6H186.256ZM186.256 64V69H191.256V64H186.256ZM173.936 64H168.936V69H173.936V64ZM189.936 35.36L185.367 33.3293L185.306 33.4652L185.254 33.6044L189.936 35.36ZM189.936 24.56L185.34 26.5296L185.453 26.7924L185.595 27.0407L189.936 24.56ZM186.256 24V19H181.256V24H186.256ZM186.256 36H181.256V41H186.256V36ZM173.936 19.4H194.816V9.4H173.936V19.4ZM194.816 19.4C195.766 19.4 196.458 19.462 196.936 19.5455C197.433 19.6323 197.547 19.7164 197.446 19.6611L202.266 10.8989C200.06 9.68574 197.329 9.4 194.816 9.4V19.4ZM197.706 19.7943C197.706 19.7944 197.697 19.79 197.681 19.78C197.664 19.7699 197.64 19.7546 197.612 19.733C197.553 19.6885 197.483 19.6258 197.414 19.5444C197.265 19.367 197.206 19.207 197.192 19.1556L206.84 16.5244C206.128 13.9144 204.41 11.9106 202.006 10.7657L197.706 19.7943ZM197.273 19.4211C197.419 19.8592 197.576 20.6929 197.576 22.08H207.576C207.576 20.0537 207.36 18.0608 206.759 16.2589L197.273 19.4211ZM197.576 22.08V34.56H207.576V22.08H197.576ZM197.576 34.56C197.576 36.2029 197.439 37.7057 197.182 39.0786L207.01 40.9214C207.393 38.881 207.576 36.7571 207.576 34.56H197.576ZM197.187 39.0499C197.096 39.5201 196.913 39.8392 196.492 40.1757L202.739 47.9843C204.986 46.1874 206.456 43.7866 207.005 40.9501L197.187 39.0499ZM196.591 40.0992C196.643 40.0594 196.474 40.2037 195.847 40.349C195.228 40.4925 194.32 40.6 193.056 40.6V50.6C196.407 50.6 199.973 50.0889 202.641 48.0608L196.591 40.0992ZM193.056 40.6H186.256V50.6H193.056V40.6ZM181.256 45.6V64H191.256V45.6H181.256ZM186.256 59H173.936V69H186.256V59ZM178.936 64V14.4H168.936V64H178.936ZM188.576 41C189.904 41 193.311 40.599 194.618 37.1156L185.254 33.6044C185.679 32.4708 186.523 31.7037 187.347 31.3159C188.031 30.9939 188.543 31 188.576 31V41ZM194.505 37.3907C195.176 35.881 195.256 34.1643 195.256 32.96H185.256C185.256 33.1621 185.251 33.3286 185.244 33.4626C185.236 33.5978 185.227 33.6878 185.22 33.7392C185.213 33.7927 185.211 33.7839 185.225 33.7273C185.238 33.6746 185.278 33.5302 185.367 33.3293L194.505 37.3907ZM195.256 32.96V28.08H185.256V32.96H195.256ZM195.256 28.08C195.256 27.0282 195.228 26.071 195.155 25.2673C195.119 24.8676 195.064 24.4214 194.972 23.977C194.899 23.6233 194.725 22.8635 194.277 22.0793L185.595 27.0407C185.4 26.6998 185.3 26.4194 185.257 26.2854C185.208 26.1375 185.186 26.0353 185.18 26.003C185.168 25.9453 185.179 25.9857 185.196 26.1727C185.23 26.5424 185.256 27.1584 185.256 28.08H195.256ZM194.532 22.5904C193.07 19.1808 189.573 19 188.576 19V29C188.561 29 188.467 28.9996 188.312 28.9756C188.161 28.9521 187.898 28.8975 187.572 28.7634C186.856 28.4683 185.879 27.7872 185.34 26.5296L194.532 22.5904ZM188.576 19H186.256V29H188.576V19ZM181.256 24V36H191.256V24H181.256ZM186.256 41H188.576V31H186.256V41ZM212.308 14.4V9.4H207.308V14.4H212.308ZM224.628 14.4H229.628V9.4H224.628V14.4ZM224.628 54.4H219.628V59.4H224.628V54.4ZM237.828 54.4H242.828V49.4H237.828V54.4ZM237.828 64V69H242.828V64H237.828ZM212.308 64H207.308V69H212.308V64ZM212.308 19.4H224.628V9.4H212.308V19.4ZM219.628 14.4V54.4H229.628V14.4H219.628ZM224.628 59.4H237.828V49.4H224.628V59.4ZM232.828 54.4V64H242.828V54.4H232.828ZM237.828 59H212.308V69H237.828V59ZM217.308 64V14.4H207.308V64H217.308ZM245.798 64L240.902 62.9891L239.661 69H245.798V64ZM256.038 14.4V9.4H251.965L251.142 13.3891L256.038 14.4ZM268.278 14.4L273.177 13.3966L272.358 9.4H268.278V14.4ZM278.438 64V69H284.566L283.337 62.9966L278.438 64ZM265.638 64L260.72 64.9016L261.472 69H265.638V64ZM263.878 54.4L267.257 50.7142L256.274 40.646L258.96 55.3016L263.878 54.4ZM265.798 56.16V61.16H278.652L269.177 52.4742L265.798 56.16ZM258.038 56.16L254.339 52.7966L246.736 61.16H258.038V56.16ZM259.638 54.4L264.583 55.1417L267.029 38.8376L255.939 51.0366L259.638 54.4ZM258.198 64V69H262.504L263.143 64.7417L258.198 64ZM260.118 47.68L256.238 50.833L263.82 60.1645L265.09 48.2084L260.118 47.68ZM259.078 46.4V41.4H248.574L255.198 49.553L259.078 46.4ZM265.158 46.4L268.379 50.2246L278.858 41.4H265.158V46.4ZM263.638 47.68L258.659 48.137L259.535 57.6726L266.859 51.5046L263.638 47.68ZM262.118 31.12L257.122 31.2985L257.127 31.438L257.139 31.577L262.118 31.12ZM262.038 28.88L267.035 28.7015L266.863 23.88H262.038V28.88ZM261.958 28.88V23.88H257.134L256.962 28.7015L261.958 28.88ZM261.878 31.12L266.85 31.6484L266.869 31.4739L266.875 31.2985L261.878 31.12ZM250.695 65.0109L260.935 15.4109L251.142 13.3891L240.902 62.9891L250.695 65.0109ZM256.038 19.4H268.278V9.4H256.038V19.4ZM263.38 15.4034L273.54 65.0034L283.337 62.9966L273.177 13.3966L263.38 15.4034ZM278.438 59H265.638V69H278.438V59ZM270.556 63.0984L268.796 53.4984L258.96 55.3016L260.72 64.9016L270.556 63.0984ZM260.5 58.0858L262.42 59.8458L269.177 52.4742L267.257 50.7142L260.5 58.0858ZM265.798 51.16H258.038V61.16H265.798V51.16ZM261.738 59.5234L263.338 57.7634L255.939 51.0366L254.339 52.7966L261.738 59.5234ZM254.694 53.6583L253.254 63.2583L263.143 64.7417L264.583 55.1417L254.694 53.6583ZM258.198 59H245.798V69H258.198V59ZM263.999 44.527L262.959 43.247L255.198 49.553L256.238 50.833L263.999 44.527ZM259.078 51.4H265.158V41.4H259.078V51.4ZM261.938 42.5754L260.418 43.8554L266.859 51.5046L268.379 50.2246L261.938 42.5754ZM268.618 47.223L267.098 30.663L257.139 31.577L258.659 48.137L268.618 47.223ZM267.115 30.9415L267.035 28.7015L257.042 29.0585L257.122 31.2985L267.115 30.9415ZM262.038 23.88H261.958V33.88H262.038V23.88ZM256.962 28.7015L256.882 30.9415L266.875 31.2985L266.955 29.0585L256.962 28.7015ZM256.906 30.5916L255.146 47.1516L265.09 48.2084L266.85 31.6484L256.906 30.5916ZM289.408 64H284.408V69H289.408V64ZM289.408 49.28H294.408V48.5397L294.194 47.8312L289.408 49.28ZM278.848 14.4V9.4H272.111L274.063 15.8488L278.848 14.4ZM290.128 14.4L294.959 13.1082L293.967 9.4H290.128V14.4ZM295.648 35.04H300.648V34.3829L300.479 33.7482L295.648 35.04ZM295.648 37.04H290.648V42.04H295.648V37.04ZM295.808 37.04V42.04H300.808V37.04H295.808ZM295.808 35.04L290.947 33.8717L290.808 34.4477V35.04H295.808ZM300.768 14.4V9.4H296.828L295.907 13.2317L300.768 14.4ZM311.968 14.4L316.753 15.8519L318.711 9.4H311.968V14.4ZM301.408 49.2L296.624 47.7481L296.408 48.4581V49.2H301.408ZM301.408 64V69H306.408V64H301.408ZM294.408 64V49.28H284.408V64H294.408ZM294.194 47.8312L283.634 12.9512L274.063 15.8488L284.623 50.7288L294.194 47.8312ZM278.848 19.4H290.128V9.4H278.848V19.4ZM285.298 15.6918L290.818 36.3318L300.479 33.7482L294.959 13.1082L285.298 15.6918ZM290.648 35.04V37.04H300.648V35.04H290.648ZM295.648 42.04H295.808V32.04H295.648V42.04ZM300.808 37.04V35.04H290.808V37.04H300.808ZM300.67 36.2083L305.63 15.5683L295.907 13.2317L290.947 33.8717L300.67 36.2083ZM300.768 19.4H311.968V9.4H300.768V19.4ZM307.184 12.9481L296.624 47.7481L306.193 50.6519L316.753 15.8519L307.184 12.9481ZM296.408 49.2V64H306.408V49.2H296.408ZM301.408 59H289.408V69H301.408V59ZM327.432 64.32L328.139 59.3703L327.432 64.32ZM321.992 62.48L319.146 66.591L319.201 66.6286L319.256 66.6648L321.992 62.48ZM319.912 46.48L319.427 41.5035L314.912 41.9433V46.48H319.912ZM332.232 45.28H337.232V39.7693L331.747 40.3035L332.232 45.28ZM332.472 54.48L327.876 56.4496L327.876 56.4496L332.472 54.48ZM334.712 54.8L337.712 58.8L337.775 58.7531L337.836 58.7043L334.712 54.8ZM335.272 54.08L339.915 55.937L339.969 55.8005L340.016 55.6611L335.272 54.08ZM334.712 46.08L330.07 47.937L330.109 48.0353L330.153 48.1318L334.712 46.08ZM331.592 43.68L330.011 48.4234L330.034 48.4311L330.057 48.4385L331.592 43.68ZM326.552 42L328.133 37.2566L328.117 37.2511L328.1 37.2456L326.552 42ZM321.512 39.12L317.739 42.4009L317.775 42.4425L317.812 42.4834L321.512 39.12ZM321.912 16.48L318.77 12.5903L318.733 12.6205L318.696 12.6515L321.912 16.48ZM327.272 14.32L327.996 19.2673L328.045 19.2601L328.094 19.252L327.272 14.32ZM340.792 14.32L341.698 9.40273L341.698 9.40273L340.792 14.32ZM345.752 16.32L342.752 20.32L342.845 20.3895L342.941 20.4546L345.752 16.32ZM347.752 32.08L348.396 37.0384L352.752 36.4726V32.08H347.752ZM335.432 33.68H330.432V39.3713L336.076 38.6384L335.432 33.68ZM334.952 23.76L331.111 26.9609L331.402 27.3101L331.751 27.6011L334.952 23.76ZM332.632 23.84L328.836 20.586L328.692 20.7539L328.564 20.9338L332.632 23.84ZM332.552 32.48L327.649 33.4606L327.649 33.4606L332.552 32.48ZM334.632 34.72L332.923 39.419L332.949 39.4283L332.975 39.4373L334.632 34.72ZM340.552 36.8L338.895 41.5173L338.918 41.5254L338.941 41.5332L340.552 36.8ZM345.992 39.84L342.375 43.2924L342.456 43.3765L342.54 43.4568L345.992 39.84ZM345.832 61.76L349.211 65.4458L349.211 65.4458L345.832 61.76ZM340.872 64.16L339.842 59.2673L339.829 59.2701L339.816 59.2729L340.872 64.16ZM334.472 59.8C332.236 59.8 330.126 59.6541 328.139 59.3703L326.725 69.2697C329.218 69.6259 331.802 69.8 334.472 69.8V59.8ZM328.139 59.3703C326.373 59.118 325.322 58.6831 324.728 58.2952L319.256 66.6648C321.436 68.0902 324.011 68.882 326.725 69.2697L328.139 59.3703ZM324.838 58.369C324.787 58.3334 324.784 58.3233 324.805 58.3473C324.815 58.3587 324.829 58.3755 324.844 58.3977C324.86 58.4199 324.874 58.4441 324.887 58.4691C324.899 58.494 324.909 58.5162 324.915 58.5337C324.921 58.551 324.923 58.5606 324.923 58.5603C324.923 58.5603 324.912 58.5115 324.912 58.4H314.912C314.912 61.7158 316.342 64.6497 319.146 66.591L324.838 58.369ZM324.912 58.4V46.48H314.912V58.4H324.912ZM320.397 51.4564L332.717 50.2564L331.747 40.3035L319.427 41.5035L320.397 51.4564ZM327.232 45.28V53.12H337.232V45.28H327.232ZM327.232 53.12C327.232 54.1287 327.38 55.2919 327.876 56.4496L337.068 52.5104C337.244 52.9214 337.232 53.178 337.232 53.12H327.232ZM327.876 56.4496C329.289 59.7456 332.59 60.04 333.752 60.04V50.04C333.788 50.04 334.267 50.035 334.916 50.3192C335.684 50.655 336.574 51.357 337.068 52.5104L327.876 56.4496ZM333.752 60.04C334.66 60.04 336.252 59.8952 337.712 58.8L331.712 50.8C332.249 50.3975 332.762 50.2138 333.099 50.1293C333.432 50.0461 333.669 50.04 333.752 50.04V60.04ZM337.836 58.7043C338.649 58.0535 339.431 57.1453 339.915 55.937L330.63 52.223C330.9 51.5481 331.308 51.1198 331.589 50.8957L337.836 58.7043ZM340.016 55.6611C340.283 54.859 340.432 54.0059 340.432 53.12H330.432C330.432 52.8741 330.475 52.661 330.529 52.4989L340.016 55.6611ZM340.432 53.12V49.28H330.432V53.12H340.432ZM340.432 49.28C340.432 47.4401 340.014 45.677 339.272 44.0282L330.153 48.1318C330.371 48.6163 330.432 48.9866 330.432 49.28H340.432ZM339.355 44.223C338.141 41.1895 335.46 39.6741 333.127 38.9215L330.057 48.4385C330.272 48.5077 330.414 48.5688 330.499 48.611C330.584 48.653 330.597 48.6687 330.564 48.6431C330.528 48.616 330.444 48.545 330.346 48.4191C330.244 48.2902 330.146 48.1273 330.07 47.937L339.355 44.223ZM333.173 38.9366L328.133 37.2566L324.971 46.7434L330.011 48.4234L333.173 38.9366ZM328.1 37.2456C326.237 36.639 325.467 36.037 325.212 35.7566L317.812 42.4834C319.691 44.5497 322.281 45.8676 325.004 46.7544L328.1 37.2456ZM325.285 35.8391C325.349 35.912 325.25 35.8392 325.134 35.4188C325.017 34.9883 324.912 34.3008 324.912 33.28H314.912C314.912 36.4317 315.51 39.8378 317.739 42.4009L325.285 35.8391ZM324.912 33.28V21.68H314.912V33.28H324.912ZM324.912 21.68C324.912 20.9652 325.015 20.5799 325.079 20.4149C325.109 20.3369 325.13 20.3067 325.132 20.3049C325.133 20.3029 325.132 20.304 325.13 20.3065C325.128 20.309 325.127 20.3098 325.128 20.3085L318.696 12.6515C315.873 15.0231 314.912 18.4 314.912 21.68H324.912ZM325.054 20.3697C325.595 19.9327 326.485 19.4885 327.996 19.2673L326.548 9.37269C323.686 9.79149 321.003 10.7873 318.77 12.5903L325.054 20.3697ZM328.094 19.252C330.042 18.9274 332.112 18.76 334.312 18.76V8.76C331.605 8.76 328.983 8.96597 326.45 9.38803L328.094 19.252ZM334.312 18.76C336.335 18.76 338.19 18.9247 339.886 19.2373L341.698 9.40273C339.341 8.9686 336.876 8.76 334.312 8.76V18.76ZM339.886 19.2373C341.365 19.5096 342.242 19.9371 342.752 20.32L348.752 12.32C346.703 10.7828 344.273 9.87702 341.698 9.40273L339.886 19.2373ZM342.941 20.4546C342.981 20.4819 342.972 20.4818 342.938 20.4445C342.902 20.4055 342.857 20.3457 342.818 20.2697C342.778 20.194 342.759 20.1316 342.752 20.0981C342.745 20.0673 342.752 20.0831 342.752 20.16H352.752C352.752 16.9015 351.307 14.0509 348.564 12.1854L342.941 20.4546ZM342.752 20.16V32.08H352.752V20.16H342.752ZM347.108 27.1216L334.788 28.7216L336.076 38.6384L348.396 37.0384L347.108 27.1216ZM340.432 33.68V26.48H330.432V33.68H340.432ZM340.432 26.48C340.432 25.5828 340.389 24.6391 340.236 23.7711C340.159 23.3361 340.03 22.7748 339.79 22.1868C339.568 21.6447 339.104 20.7113 338.153 19.9189L331.751 27.6011C331.338 27.2571 331.061 26.9031 330.884 26.6333C330.707 26.3631 330.598 26.1288 330.534 25.9732C330.469 25.8143 330.433 25.6918 330.415 25.6237C330.396 25.5535 330.389 25.5124 330.388 25.5089C330.388 25.5077 330.401 25.5848 330.413 25.7654C330.424 25.9404 330.432 26.1756 330.432 26.48H340.432ZM338.793 20.5591C337.426 18.9184 335.544 18.28 333.832 18.28V28.28C333.516 28.28 333.041 28.2264 332.503 27.9957C331.945 27.7568 331.469 27.391 331.111 26.9609L338.793 20.5591ZM333.832 18.28C331.852 18.28 330.079 19.1355 328.836 20.586L336.428 27.094C336.178 27.3859 335.802 27.7105 335.287 27.9509C334.768 28.1928 334.258 28.28 333.832 28.28V18.28ZM328.564 20.9338C327.688 22.1601 327.467 23.5215 327.382 24.1129C327.269 24.908 327.232 25.7762 327.232 26.64H337.232C337.232 26.3384 337.239 26.0935 337.25 25.8993C337.26 25.7019 337.274 25.5829 337.282 25.5271C337.291 25.4612 337.286 25.5315 337.238 25.6886C337.213 25.7719 337.167 25.9068 337.09 26.0753C337.015 26.2411 336.892 26.4785 336.701 26.7462L328.564 20.9338ZM327.232 26.64V29.6H337.232V26.64H327.232ZM327.232 29.6C327.232 30.8579 327.388 32.1544 327.649 33.4606L337.455 31.4994C337.29 30.6723 337.232 30.0488 337.232 29.6H327.232ZM327.649 33.4606C328.261 36.5194 330.397 38.5001 332.923 39.419L336.341 30.021C336.334 30.0186 336.595 30.1133 336.896 30.4377C337.221 30.7878 337.393 31.1903 337.455 31.4994L327.649 33.4606ZM332.975 39.4373L338.895 41.5173L342.21 32.0827L336.29 30.0027L332.975 39.4373ZM338.941 41.5332C341.113 42.2728 342.056 42.9579 342.375 43.2924L349.609 36.3876C347.688 34.3754 345.004 33.0339 342.163 32.0668L338.941 41.5332ZM342.54 43.4568C342.429 43.3506 342.472 43.3241 342.555 43.5791C342.646 43.8601 342.752 44.3945 342.752 45.28H352.752C352.752 42.1397 352.034 38.6949 349.445 36.2232L342.54 43.4568ZM342.752 45.28V56.64H352.752V45.28H342.752ZM342.752 56.64C342.752 57.2931 342.658 57.6645 342.591 57.8444C342.533 57.9985 342.484 58.046 342.454 58.0742L349.211 65.4458C351.804 63.069 352.752 59.8508 352.752 56.64H342.752ZM342.454 58.0742C341.951 58.5346 341.162 58.9894 339.842 59.2673L341.902 69.0527C344.636 68.4772 347.153 67.332 349.211 65.4458L342.454 58.0742ZM339.816 59.2729C338.233 59.6152 336.457 59.8 334.472 59.8V69.8C337.074 69.8 339.565 69.5581 341.929 69.0471L339.816 59.2729Z" fill="url(#paint0_linear_22_862)"/>
</g>
<defs>
<filter id="filter0_d_22_862" x="5.91891" y="13.7598" width="344.484" height="57.6908" filterUnits="userSpaceOnUse" color-interpolation-filters="sRGB">
<feFlood flood-opacity="0" result="BackgroundImageFix"/>
<feColorMatrix in="SourceAlpha" type="matrix" values="0 0 0 0 0 0 0 0 0 0 0 0 0 0 0 0 0 0 127 0" result="hardAlpha"/>
<feOffset dy="4"/>
<feGaussianBlur stdDeviation="1.3254"/>
<feComposite in2="hardAlpha" operator="out"/>
<feColorMatrix type="matrix" values="0 0 0 0 0.00776041 0 0 0 0 0.326558 0 0 0 0 0.620833 0 0 0 1 0"/>
<feBlend mode="normal" in2="BackgroundImageFix" result="effect1_dropShadow_22_862"/>
<feBlend mode="normal" in="SourceGraphic" in2="effect1_dropShadow_22_862" result="shape"/>
</filter>
<linearGradient id="paint0_linear_22_862" x1="7" y1="51.4286" x2="349" y2="51.4286" gradientUnits="userSpaceOnUse">
<stop stop-color="#E449F1"/>
<stop offset="0.510417" stop-color="#0F98E4"/>
<stop offset="1" stop-color="#E449F1"/>
</linearGradient>
</defs>
</svg>
